<svg xmlns="http://www.w3.org/2000/svg" xmlns:xlink="http://www.w3.org/1999/xlink" version="1.1" x="0px" y="0px" viewBox="0 0 100 125" enable-background="new 0 0 100 100" xml:space="preserve"><path d="M94.377,22.263c-2.481-3.97-11.88-2.894-25.837,2.933c-5.174-3.878-11.595-6.177-18.543-6.177  c-17.083,0-30.981,13.898-30.981,30.981c0,1.985,0.19,3.926,0.548,5.808c-2.274,2.001-4.3,3.923-6.06,5.746  c-0.327-0.16-0.693-0.252-1.081-0.252c-1.363,0-2.467,1.105-2.467,2.467c0,0.48,0.139,0.926,0.376,1.305  c-4.668,5.603-6.368,10.019-4.715,12.663c1.018,1.629,3.13,2.363,6.048,2.363c4.829-0.001,11.86-2.016,19.762-5.317  c5.178,3.89,11.61,6.198,18.571,6.198c17.083,0,30.981-13.898,30.981-30.981c0-1.996-0.192-3.948-0.555-5.84  c2.802-2.465,5.308-4.887,7.423-7.196c0.464,0.285,1.008,0.452,1.592,0.452c1.685,0,3.052-1.366,3.052-3.052  c0-0.798-0.309-1.522-0.81-2.065C94.667,28.12,95.829,24.587,94.377,22.263z M49.997,21.82c13.742,0,25.212,9.891,27.681,22.926  c-4.187,3.552-9.139,7.313-14.784,11.132c-1.417-1.752-3.584-2.873-6.013-2.873c-4.27,0-7.731,3.461-7.731,7.731  c0,1.175,0.264,2.289,0.733,3.286c-6,3.465-11.636,6.317-16.734,8.555C26.274,67.433,21.817,59.227,21.817,50  C21.817,34.461,34.458,21.82,49.997,21.82z M6.804,76.995c-1.277-2.043,0.466-6.005,4.6-10.981c0.311,0.142,0.655,0.222,1.02,0.222  c1.363,0,2.467-1.105,2.467-2.467c0-0.457-0.127-0.884-0.344-1.252c1.582-1.647,3.374-3.368,5.359-5.141  c1.603,6.539,5.286,12.269,10.307,16.445C17.54,79.009,8.722,80.064,6.804,76.995z M78.177,50c0,15.539-12.642,28.18-28.18,28.18  c-5.748,0-11.097-1.733-15.559-4.7c5.209-2.324,10.708-5.14,16.147-8.262c1.402,1.965,3.698,3.247,6.296,3.247  c4.27,0,7.731-3.461,7.731-7.731c0-1.343-0.343-2.606-0.945-3.706c5.1-3.472,9.958-7.121,14.26-10.727  C78.086,47.513,78.177,48.746,78.177,50z M80.093,42.645c-1.599-6.541-5.278-12.273-10.296-16.454  c12.331-5.047,21.439-6.311,23.393-3.186c1.047,1.676,0.088,4.662-2.661,8.511c-0.339-0.13-0.706-0.204-1.091-0.204  c-1.685,0-3.052,1.366-3.052,3.052c0,0.602,0.177,1.162,0.478,1.635C84.978,38.075,82.714,40.305,80.093,42.645z"/></svg>